<svg xmlns="http://www.w3.org/2000/svg" viewBox="0 0 683.45 683.4" xmlns:v="https://vecta.io/nano"><path fill="#2d374b" d="M0 381.57v-79.1a19.63 19.63 0 0 0 1.23-3.6c.93-6.84 1.26-13.8 2.71-20.52 2.31-10.66 5.25-21.2 8.1-31.74 1.49-5.53 3.2-11 5.07-16.44 2.42-7 4.79-14.12 7.72-21 3.44-8 7.24-15.9 11.27-23.64 4.46-8.57 9-17.15 14.17-25.27 6.2-9.67 12.92-19.05 19.88-28.19 6-7.91 12.48-15.5 19.13-22.88 5.58-6.18 11.6-12 17.65-17.7 4.7-4.45 9.69-8.62 14.65-12.79 4.55-3.82 9.08-7.71 13.91-11.15 8.47-6 17-12 25.81-17.54 6.52-4.17 13.28-8 20.17-11.52 9.45-4.83 19-9.47 28.72-13.75 6.68-2.94 13.65-5.26 20.58-7.62 7.28-2.49 14.6-4.87 22-7 6.08-1.72 12.26-3.12 18.46-4.36C276.77 4.73 282.39 4 288 3.18l13.75-1.95c1.71-.27 3.36-1.16 5-1.17L376.07 0a13.19 13.19 0 0 1 2.52.1l16 3.05c8.68 1.58 17.46 2.71 26 4.73 8.34 2 16.45 4.88 24.71 7.22 13.11 3.7 25.57 9 38 14.51A317.39 317.39 0 0 1 525 52.08c8.44 5.35 16.52 11.31 24.45 17.4 8.32 6.38 16.69 12.8 24.27 20 9.64 9.17 18.71 19 27.66 28.84a251.54 251.54 0 0 1 17.29 21.13 359.34 359.34 0 0 1 29.87 48.83c3.21 6.33 6.1 12.83 8.94 19.34 1.94 4.47 3.62 9.06 5.27 13.65 1.58 4.39 3 8.85 4.45 13.28 2.06 6.23 4.3 12.4 6.07 18.7 1.71 6.09 3 12.3 4.33 18.49 1 4.81 1.93 9.66 2.68 14.52.78 5.09 1.26 10.22 2 15.32.24 1.7 1.17 3.36 1.17 5q.12 35.43.05 70.87a14 14 0 0 1-.14 2.51l-3 15.32c-1.2 6.89-1.87 13.88-3.41 20.68-1.64 7.25-4 14.34-6.11 21.47-1.6 5.38-3.13 10.79-5 16-3.94 10.78-7.64 21.69-12.34 32.15-4.4 9.8-9.71 19.22-15.06 28.55-8.24 14.36-17.32 28.2-28.1 40.81-8.71 10.2-17.43 20.41-26.63 30.16a224.91 224.91 0 0 1-18.82 17.13c-7.36 6.24-14.81 12.4-22.6 18.09-7.26 5.3-14.84 10.21-22.57 14.81-9.27 5.54-18.61 11.06-28.35 15.69-10.78 5.13-22 9.43-33.11 13.72-7.74 3-15.69 5.46-23.61 8-4.54 1.43-9.18 2.56-13.83 3.58-5.8 1.28-11.63 2.46-17.49 3.4-6.41 1-12.88 1.7-19.31 2.62a12.51 12.51 0 0 0-3 1.22h-79.1a27.45 27.45 0 0 0-4.23-1.23c-4.31-.54-8.7-.63-13-1.41-6.63-1.22-13.19-2.84-19.78-4.31-5.65-1.27-11.37-2.31-16.92-3.93-6.13-1.78-12.15-4-18.14-6.2-9.78-3.61-19.61-7.11-29.19-11.18-7.1-3-13.92-6.74-20.73-10.39s-13.78-7.17-20.15-11.53C147.94 625.13 136.26 616.8 125 608a258.71 258.71 0 0 1-26-23 413.33 413.33 0 0 1-29.26-33.6 379 379 0 0 1-24.24-35.65c-6.29-10.38-11.5-21.47-16.73-32.43-3.61-7.53-6.7-15.31-9.73-23.1-1.83-4.69-3.06-9.62-4.63-14.42-1.16-3.55-2.54-7-3.61-10.59-.73-2.44-1-5-1.65-7.47-1.08-4.15-2.67-8.19-3.37-12.39-1.71-10.24-3-20.55-4.56-30.82A13 13 0 0 0 0 381.57zm144.42 24.13a.52.52 0 0 0-.49-.19c0-1.79-.11-3.58-.12-5.37q-.08-80.82-.21-161.64c0-7.54 3-12.7 9.5-16.47q89.45-51.78 178.78-103.75c6.11-3.55 12.08-3.51 18.21 0q89.39 51.6 178.84 103.06c6.8 3.9 9.72 9.3 9.72 16.95q-.1 85.88 0 171.76c0 1.26-.07 2.53-.1 3.79-.68-.93-1.4-1.82-2-2.79q-48.62-75.85-97.22-151.73l-2.11-3.15a10.93 10.93 0 0 0-.85 1l-36 61.36a4.58 4.58 0 0 0 .33 3.85l17.19 28Q457.65 415 497.47 479.6l-18.38 10.64c-.2-.37-.38-.75-.61-1.1q-45.47-71.86-91-143.72a21.46 21.46 0 0 0-1.6-2c-.58.86-1 1.44-1.38 2.07Q364.26 380 344 414.41c-1.09 1.84-.9 3.11.21 4.83Q360 444 375.73 468.84q18.88 29.76 37.72 59.55c-1.06.68-2.09 1.4-3.18 2l-60.37 35.15c-5.65 3.32-10.82 3.32-16.51 0l-73.08-42.2c-1-.57-2.07-1-3.11-1.44.55-1.13 1-2.29 1.68-3.37q40.92-69.63 81.86-139.24l42.31-72.23q20.46-34.8 41.05-69.53c.49-.83.93-1.68 1.5-2.71l-72.68.1c-1.09 0-2.57 1.24-3.21 2.29q-21 34.56-41.94 69.22-25.26 41.8-50.53 83.59l-31.31 51.49Q208.71 470 191.57 498.5L182 514.68l26.51 15.29 32.57 18.54c.43.3.84.64 1.29.9l66 38c9 5.13 17.56 11.06 28.46 12.07 8.55.79 16.69-.15 24-4.3l68.93-39.86q52.19-30.3 104.36-60.63c6.46-3.76 13.32-7.05 19.16-11.62 11.75-9.2 17.08-22 17.1-36.72q.21-104.88 0-209.76a51.81 51.81 0 0 0-2-13.53 45.21 45.21 0 0 0-21.56-27.71l-49.8-28.76q-65.42-37.73-130.83-75.47c-14.31-8.28-29.15-9.65-44.33-3.09-6 2.57-11.43 6.29-17.07 9.56q-46.61 27-93.19 54.09-37.17 21.56-74.37 43.07c-16.34 9.44-25 23.52-25 42.43q-.15 84.48 0 169v49.59l-.1 17.06a3.71 3.71 0 0 0 1.77 2.46l23.18 13.45 25.19 14.57L329.12 235l-20.87-.91c-13.94-.31-27.83-.1-41.24 4.46-12.11 4.13-22.28 10.74-29 22-3.17 5.3-6.66 10.41-10 15.6q-31.43 48.85-62.86 97.66l-20.73 31.89z"/><path fill="#95bddb" d="M257.2 521.94l3.11 1.44 73.08 42.2c5.69 3.31 10.86 3.31 16.51 0l60.37-35.15c1.09-.63 2.12-1.35 3.18-2l37.4-21.54 28.24-16.61 18.38-10.64 33.62-19.32a13.71 13.71 0 0 0 7.41-12.35v-34.06c0-1.26.1-2.53.1-3.79V238.36c0-7.65-2.92-13-9.72-16.95Q439.43 170 350.09 118.31c-6.13-3.54-12.1-3.58-18.21 0Q242.51 170.2 153.1 222c-6.53 3.77-9.53 8.93-9.5 16.47q.22 80.82.21 161.64c0 1.79.08 3.58.12 5.37l.34.81-18.7 29.16-12.56 18.88-.79-.11V237.13c0-18.91 8.66-33 25-42.43q37.2-21.51 74.37-43.07 46.59-27 93.19-54.09c5.64-3.27 11.11-7 17.07-9.56 15.18-6.56 30-5.19 44.33 3.09q65.36 37.87 130.82 75.55l49.8 28.76a45.21 45.21 0 0 1 21.56 27.71 51.81 51.81 0 0 1 2 13.53q.18 104.88 0 209.76c0 14.72-5.35 27.52-17.1 36.72-5.84 4.57-12.7 7.86-19.16 11.62q-52.1 30.35-104.34 60.63l-68.93 39.86c-7.33 4.15-15.47 5.09-24 4.3-10.9-1-19.48-6.94-28.46-12.07l-66-38c-.45-.26-.86-.6-1.29-.9l13.08-22.31c.89-1.53 2.02-2.87 3.04-4.29z"/><path fill="#fefefe" d="M257.2 521.94l-3 4.26-13.08 22.31-32.57-18.54-26.51-15.29 9.57-16.18q17.16-28.49 34.36-56.95l31.31-51.49q25.31-41.78 50.53-83.59 20.94-34.62 41.94-69.22c.64-1.05 2.12-2.28 3.21-2.29l72.68-.1-1.5 2.71q-20.52 34.76-41.05 69.53l-42.31 72.23q-40.94 69.67-81.9 139.24c-.64 1.08-1.13 2.24-1.68 3.37zM113 454.36l12.56-18.88 18.7-29.16.15-.62 20.73-31.89Q196.61 325 228 276.18c3.34-5.19 6.83-10.3 10-15.6 6.74-11.25 16.91-17.86 29-22 13.41-4.56 27.3-4.77 41.24-4.46 6.81.15 13.62.59 20.87.91L162.26 503.29l-25.19-14.57-23.18-13.45a3.71 3.71 0 0 1-1.77-2.46c-.1-5.69 0-11.38.1-17.06z"/><path fill="#289fef" d="M538.5 413.87v34.06a13.71 13.71 0 0 1-7.41 12.35l-33.62 19.32-79.63-129.18-17.19-28a4.58 4.58 0 0 1-.33-3.85l36-61.36a10.93 10.93 0 0 1 .85-1l2.11 3.15q48.6 75.86 97.22 151.73c.6.96 1.32 1.85 2 2.78zm-59.41 76.37l-28.24 16.61-37.4 21.54q-18.85-29.77-37.72-59.55Q360 444 344.16 419.24c-1.11-1.72-1.3-3-.21-4.83q20.37-34.41 40.59-68.91c.36-.63.8-1.21 1.38-2.07a21.46 21.46 0 0 1 1.6 2q45.5 71.85 91 143.72l.57 1.09z"/><path fill="#718ea9" d="m113 454.36-.79 1.39v-1.5Z"/><path fill="#4d627a" d="m144.42 405.7-.15.62-.34-.81a.52.52 0 0 1 .49.19Z"/></svg>