<svg xmlns="http://www.w3.org/2000/svg" viewBox="340.53 154.22 975.48 975.45" xmlns:v="https://vecta.io/nano"><defs><clipPath id="A"><path d="M0 962h1242V0H0z"/></clipPath><clipPath id="B"><path d="M632.595 754.886h171.396V475.514H632.595z"/></clipPath><clipPath id="C"><path d="M632.595 443.598h171.51V206.315h-171.51z"/></clipPath><clipPath id="D"><path d="M632.595 552.055h171.396V375.996H632.595z"/></clipPath><clipPath id="E"><path d="M461.177 552.055h171.418V375.996H461.177z"/></clipPath></defs><g clip-path="url(#A)" transform="matrix(1.333333 0 0 -1.333333 0 1282.6667)"><path d="M621.21 846.334c202.021 0 365.79-163.77 365.79-365.791s-163.769-365.79-365.79-365.79-365.79 163.77-365.79 365.79 163.769 365.791 365.79 365.791" fill="#627eea"/><g clip-path="url(#B)" opacity=".602"><path d="M632.595 754.886V552.101l171.396-76.587z" fill="#fff"/></g><path d="M632.595 754.886L461.177 475.514l171.418 76.587z" fill="#fff"/><g clip-path="url(#C)" opacity=".602"><path d="M632.595 344.104V206.315l171.51 237.284z" fill="#fff"/></g><path d="M632.595 206.315v137.812l-171.418 99.472z" fill="#fff"/><g clip-path="url(#D)" opacity=".2"><path d="M632.595 375.996l171.396 99.518-171.396 76.541z" fill="#fff"/></g><g clip-path="url(#E)" opacity=".602"><path d="M461.177 475.514l171.418-99.518v176.06z" fill="#fff"/></g></g></svg>