<svg xmlns="http://www.w3.org/2000/svg" viewBox="0 0 56298 56306"><path d="M28175 0C43822 27 56500 12811 56300 28506c-200 15458-12800 27800-28151 27800C12590 56300-189 43651 0 27732 185 12469 12664 30 28175 0Zm5441 47016a478 478 0 00-147-223c-294-206-484-494-676-794-242-380-183-746-38-1120 58-149 105-300 162-448a9372 9372 0 00 354-928 43 43 0 01 14-19c249-233 289-578 454-859 117-200 186-430 294-642 135-267 243-551 360-829 85-200 169-409 256-613a9482 9482 0 00 362-954c136-442 371-848 450-1308a209 209 0 01 19-44 2021 2021 0 00 187-641c7-111 30-221 46-331 60-400 255-756 307-1155a265 265 0 01 43-111c200-286 309-625 547-892 200-224 390-400 727-364a3381 3381 0 00 910 0 8436 8436 0 01 1337-72 1146 1146 0 00 354-48 1387 1387 0 01 449-54c219 0 446 49 652-81 29-19 78-7 118-10 500-26 994-41 1481-186a1020 1020 0 00 657-510 2914 2914 0 00 321-1192c20-387-120-738-173-1107a814 814 0 01 150-669c157-200 338-384 508-575s181-337-9-542c-93-100-192-194-285-293a472 472 0 01 0-684c122-127 247-251 372-375a326 326 0 00 106-208c21-238 5-462-190-635a350 350 0 01-128-225 2107 2107 0 00-108-489 232 232 0 01 82-300c134-75 239-190 369-263a8041 8041 0 00 975-637 1368 1368 0 00 406-524 284 284 0 00-86-386c-120-93-225-205-349-289-358-240-668-543-1029-779a3589 3589 0 01-319-248c-214-173-465-300-648-518-118-142-194-315-325-439-354-338-623-746-947-1106a954 954 0 01-243-652 4347 4347 0 01 226-1554c63-186 73-390 182-559a455 455 0 00 0-478c-140-282-383-508-448-830a221 221 0 00-38-61c-181-270-346-549-507-832-121-213-284-400-353-645a182 182 0 00-44-57c-209-224-278-532-467-773-100-125-134-300-248-432a349 349 0 01-71-248 1100 1100 0 00-219-720 710 710 0 01-84-200c-109-310-306-574-473-849-130-213-277-426-421-634-210-300-409-600-688-847-106-93-253-118-343-208-256-254-617-287-908-467-129-80-305-81-457-130-286-92-560-223-866-256a2508 2508 0 01-562-100c-490-172-1000-200-1507-244-445-37-881-126-1323-174a5343 5343 0 00-856-70 2928 2928 0 01-1242-200 1846 1846 0 00-442-100c-354-46-716-55-1051-205a1089 1089 0 00-254-65 10643 10643 0 00-1169-93A4627 4627 0 00 25578 8800a2991 2991 0 01-606 138 1591 1591 0 00-600 148 1700 1700 0 01-472 160 949 949 0 00-386 122c-292 200-668 225-935 470-16 15-46 13-69 17a600 600 0 00-352 189 700 700 0 01-195 138 4832 4832 0 00-669 494c-168 135-286 334-481 430-213 100-371 306-618 351-22 0-40 25-59 40-507 426-1009 858-1484 1320-400 390-793 790-1188 1187a2357 2357 0 01-537 394c-365 200-755 347-1185 327a440 440 0 00-343 142 1243 1243 0 00-311 449 400 400 0 01-371 281c-267 33-544 108-715 346s-400 455-465 770a383 383 0 01-331 333 1561 1561 0 00-360 127c-194 82-222 187-106 360 100 147 80 243-82 328a1810 1810 0 00-248 184c-185 140-324 332-527 452a247 247 0 00-95 105c-100 235-300 394-447 588a7066 7066 0 00-513 900 349 349 0 00-22 93 2006 2006 0 01-67 352 2385 2385 0 00 8 974c53 216 81 422-54 622a200 200 0 00 37 280c149 124 140 272 91 435-93 313-337 560-393 890 0 7-8 13-14 19-219 200-229 460-242 727a370 370 0 00 200 380c184 100 243 267 285 449 23 100 26 206 50 306 100 419 28 882 326 1250a51 51 0 01 6 22c50 370 342 562 586 785a1722 1722 0 00 742 448 215 215 0 01 100 65 371 371 0 00 158 95c300 117 452 386 622 635a130 130 0 01 12 46c89 427 95 872 280 1280a1638 1638 0 01 63 300 511 511 0 00 100 242 965 965 0 01 188 384 600 600 0 00 207 344 2585 2585 0 00 715 370 720 720 0 01 423 326c139 210 180 463 308 672a2562 2562 0 01 223 576c100 317 264 612 342 938a244 244 0 00 49 81c171 235 228 542 470 732a163 163 0 01 39 86 180 180 0 00 82 115c273 151 345 525 676 613 25 6 40 47 62 71a600 600 0 00 348 191 1222 1222 0 01 317 100 2538 2538 0 00 660 200 168 168 0 01 108 42A2331 2331 0 00 19400 37000a3480 3480 0 00 468 279c127 56 205 189 341 211 200 31 356 137 530 213a2394 2394 0 00 665 184c237 27 300-25 359-252a1746 1746 0 00 68-425 2951 2951 0 01 169-867 2573 2573 0 00 139-556 2124 2124 0 01 231-776 892 892 0 00 43-112 520 520 0 00-143-608c-110-107-262-157-353-282-154-213-343-400-483-623-100-161-200-325-316-476a4800 4800 0 01-537-955 2900 2900 0 00-135-281c-165-290-213-633-410-909a100 100 0 01-9-22c-54-239-100-479-165-716a969 969 0 01 32-561 412 412 0 01 326-310 677 677 0 01 626 150c300 260 507 600 689 942 152 288 291 588 454 865s245 600 422 878c154 243 210 549 300 828 57 166 142 278 218 252 127-44 135-168 146-277a736 736 0 01 110-364 1200 1200 0 00 200-484 1505 1505 0 01 193-461c117-200 216-429 167-660-65-300-94-617-210-909a4075 4075 0 01-120-511c-63-251-14-512-81-761-127-479-121-980-238-1461a385 385 0 01-5-100c-6-776 0-1552-20-2327A1026 1026 0 01 23300 24100a451 451 0 01 391-192 645 645 0 01 600 440c34 100 50 200 88 300a3633 3633 0 01 255 1332 7481 7481 0 00 111 1046 5963 5963 0 01 72 831v500a149 149 0 00 94 153 184 184 0 00 200-45 330 330 0 00 86-142 1624 1624 0 01 207-376c143-220 282-443 409-672a1613 1613 0 01 166-260 838 838 0 00 226-636c-19-183-42-366-45-549-11-592-9-1184-21-1775a12611 12611 0 01 312-3135 1381 1381 0 01 88-248c72-160 150-317 229-474a2414 2414 0 01 645-758 223 223 0 01 135-42c220-18 400 148 425 422a7161 7161 0 01 54 717c-8 424 0 848 0 1272-7 640-56 1275-261 1889a1652 1652 0 00-75 663c11 130 94 163 200 86a569 569 0 00 139-165 1457 1457 0 01 133-200c307-367 622-727 960-1068 160-162 330-333 336-586 5-177 47-351 48-524 0-535 300-988 390-1500a225 225 0 01 43-86c186-287 205-657 452-914a44 44 0 00 10-22c47-328 283-565 418-851a4777 4777 0 01 600-915c287-361 530-757 852-1089 189-194 325-435 555-593 286-200 275-200 525 45a366 366 0 01 100 370 739 739 0 01-65 181 1790 1790 0 00-158 600 1144 1144 0 01-181 515 716 716 0 00-120 400 516 516 0 01-92 317c-215 270-258 633-484 900a125 125 0 00-14 45 726 726 0 01-183 330 518 518 0 00-156 366c0 113 81 156 180 100a300 300 0 00 74-60c317-340 700-600 1052-905 144-124 270-287 443-360 235-100 407-278 605-419 300-214 617-389 918-594 207-141 450-188 666-300 168-87 322-200 500-272 82-35 179-22 246-79 191-163 423-200 658-235 177-30 367-19 521-148a150 150 0 01 182 0c110 88 237 155 305 294a184 184 0 01 0 192c-132 273-379 431-600 606-317 251-630 506-966 736-406 280-828 532-1242 800a3400 3400 0 01-488 289c-258 109-446 341-730 394-244 239-580 325-855 519-361 255-769 443-1157 661a485 485 0 00-83 48c-55 46-114 100-90 180s100 95 173 100a878 878 0 00 330-47c665-250 1375-251 2063-376a281 281 0 01 119 0 1088 1088 0 00 500 0c180-35 362-56 542-91a583 583 0 01 530 154c213 200 186 454-65 594-366 200-735 400-1107 600-155 79-343 85-488 183-212 143-456 183-694 245-123 32-245 73-367 100-276 73-547 169-838 181-391 15-784-25-1172 60a218 218 0 01-95 0c-260-65-524-44-788-50a810 810 0 01-237-16c-248-82-438 13-606 179a2978 2978 0 00-444 551c-170 274-435 486-663 718s-441 500-685 735a261 261 0 00-70 335c95 49 167 0 243-18 209-57 393-178 600-242 592-185 1177-407 1800-464 420-39 824-200 1254-163a509 509 0 00 140-27 3739 3739 0 01 858-62c200 0 292 137 368 300s-13 243-100 338a1910 1910 0 01-411 323c-206 119-414 241-607 376-257 180-557 260-821 422-185 114-421 140-624 235-313 146-667 162-985 290a2800 2800 0 01-840 159c-223 18-447 19-669 48a3831 3831 0 01-1166-6c-100-16-200-36-275 37a1710 1710 0 00-321 353 9089 9089 0 01-572 881 215 215 0 00-47 81c-64 336-407 527-453 871-179 156-193 400-300 591-54 100 0 170 108 185a549 549 0 00 371-71 1922 1922 0 01 630-211c255-57 514-78 767-169a1963 1963 0 01 700-156c511 12 984-184 1480-250a7128 7128 0 01 978-49 300 300 0 01 289 247 318 318 0 01-89 371c-312 255-614 524-1011 647a500 500 0 00-193 93c-162 149-370 178-566 238a878 878 0 00-113 37 1900 1900 0 01-700 218 3241 3241 0 00-427 56 5525 5525 0 01-1283 125c-263-12-528 0-791 0a945 945 0 01-329-52c-318-109-532-7-638 308a1668 1668 0 01-200 432 968 968 0 00-130 333 588 588 0 01-72 200 1611 1611 0 00-227 576 430 430 0 01-63 179c-142 174-185 387-246 593-32 106-49 200 53 281s184 15 271-17a315 315 0 00 112-88 680 680 0 01 255-173c249-100 456-283 718-359a375 375 0 00 125-69 1352 1352 0 01 356-179c332-126 655-273 991-392a5886 5886 0 01 911-271c171-31 354 7 516-86a376 376 0 01 388 13 658 658 0 00 272 86 257 257 0 01 249 160c56 210 87 440-60 622-274 339-549 686-979 850a200 200 0 00-81 50c-236 276-642 232-894 477-14 14-45 14-69 15a1100 1100 0 00-369 100 3746 3746 0 01-1049 272c-440 59-874 164-1317 215a1791 1791 0 01-471-35c-63-9-125-28-188-33-220-14-290 35-325 254a1452 1452 0 01-125 460 2281 2281 0 00-212 781 974 974 0 01-72 277 2488 2488 0 00-232 1117 429 429 0 01-113 331 655 655 0 00-175 384c-23 133-29 275-117 386a1100 1100 0 00-206 530 574 574 0 01-100 265 1200 1200 0 00-195 460 834 834 0 01-89 300c-244 359-291 807-530 1169-12 19-8 47-15 70a422 422 0 01-88 169 938 938 0 00-210 400 1141 1141 0 01-164 315c-136 200-263 417-383 630a4684 4684 0 01-473 686c-311 375-642 731-878 1160a351 351 0 01-156 144c-46 24-113 30-117 100 480 500 4087 1743 6151 2100a22210 22210 0 00 9631-427 276 276 0 00-46-256Z" fill="#00dacc" class="bg"/><path d="m33616 47016 279 36a276 276 0 01 46 256 22210 22210 0 01-9631 427c-2064-357-5671-1600-6151-2100 0-72 71-78 117-100a351 351 0 00 156-144c236-429 567-785 878-1160a4684 4684 0 00 473-686c120-213 247-426 383-630a1141 1141 0 00 164-315 938 938 0 01 210-400 422 422 0 00 88-169c7-23 0-51 15-70 239-362 286-810 530-1169a834 834 0 00 89-300 1200 1200 0 01 195-460 574 574 0 00 100-265 1100 1100 0 01 206-530c88-111 94-253 117-386a655 655 0 01 175-384 429 429 0 00 113-331 2488 2488 0 01 232-1114 974 974 0 00 72-277 2281 2281 0 01 212-781 1452 1452 0 00 125-460c35-219 100-268 325-254 63 5 125 24 188 33a1791 1791 0 00 471 35c443-51 877-156 1317-215a3746 3746 0 00 1027-277 1100 1100 0 01 369-100c24 0 55 0 69-15 252-245 658-200 894-477a200 200 0 01 81-50c430-164 705-511 979-850 147-182 116-412 60-622a257 257 0 00-249-160 658 658 0 01-272-86 376 376 0 00-388-13c-162 93-345 55-516 86a5886 5886 0 00-911 271c-336 119-659 266-991 392a1352 1352 0 00-356 179 375 375 0 01-125 69c-262 76-469 259-718 359a680 680 0 00-255 173 315 315 0 01-112 88c-87 32-176 90-271 17s-85-175-53-281c61-206 100-419 246-593a430 430 0 00 63-179 1611 1611 0 01 227-576 588 588 0 00 72-200 968 968 0 01 130-333 1668 1668 0 00 200-432c106-315 320-417 638-308a945 945 0 00 329 52c263 0 528-13 791 0a5525 5525 0 00 1283-125 3241 3241 0 01 427-56 1900 1900 0 00 700-218 878 878 0 01 113-37c200-60 400-89 566-238a500 500 0 01 193-93c400-123 700-392 1011-647a318 318 0 00 89-371 300 300 0 00-289-247 7128 7128 0 00-978 49c-500 66-969 262-1480 250a1963 1963 0 00-700 156c-253 91-512 112-767 169a1922 1922 0 00-630 211 549 549 0 01-371 71c-111-15-162-89-108-185 109-193 123-435 300-591 46-344 389-535 453-871a215 215 0 01 47-81 9089 9089 0 00 572-881 1710 1710 0 01 321-353c79-73 179-53 275-37a3831 3831 0 00 1166 6c222-29 446-30 669-48a2800 2800 0 00 840-159c318-128 672-144 985-290 200-95 439-121 624-235 264-162 564-242 821-422 193-135 400-257 607-376a1910 1910 0 00 411-323c91-95 173-192 100-338s-169-295-368-300a3739 3739 0 00-858 62 509 509 0 01-140 27c-430-33-834 124-1254 163-624 57-1209 279-1800 464-200 64-387 185-600 242-76 20-148 67-243 18a261 261 0 01 70-335c244-231 450-500 685-735s493-444 663-718a2978 2978 0 01 444-551c168-166 358-261 606-179a810 810 0 00 237 16c264 6 528-15 788 50a218 218 0 00 95 0c388-85 781-45 1172-60 291-12 562-108 838-181 122-31 244-72 367-100 238-62 482-100 694-245 145-100 333-100 488-183a36990 36990 0 00 1107-600c251-140 278-400 65-594a583 583 0 00-530-154c-180 35-362 56-542 91a1088 1088 0 01-500 0 281 281 0 00-119 0c-688 125-1400 126-2063 376a878 878 0 01-330 47c-75 0-148-9-173-100s35-134 90-180a485 485 0 01 83-48c388-218 800-406 1157-661 275-194 611-280 855-519 284-53 472-285 730-394a3400 3400 0 00 488-289c414-265 836-517 1242-800 336-230 649-485 966-736 222-175 469-333 600-606a184 184 0 00 0-192c-68-139-195-206-305-294a150 150 0 00-182 0c-154 129-344 118-521 148-235 40-467 72-658 235-67 57-164 44-246 79-177 75-331 185-500 272-216 111-459 158-666 300-300 200-621 380-918 594-200 141-370 320-605 419-173 73-300 236-443 360-351 300-735 565-1052 905a300 300 0 01-74 60c-100 53-177 10-180-100a518 518 0 01 156-366 726 726 0 00 183-330 125 125 0 01 14-45c226-265 269-628 484-900a516 516 0 00 92-317 716 716 0 01 120-400 1144 1144 0 00 181-515 1790 1790 0 01 158-600 739 739 0 00 65-181 366 366 0 00-100-370c-250-243-239-242-525-45-230 158-366 400-555 593-322 332-565 728-852 1089a4777 4777 0 00-600 915c-135 286-371 523-418 851a44 44 0 01-10 22c-247 257-266 627-452 914a225 225 0 00-43 86c-85 510-385 963-390 1500 0 173-43 347-48 524-6 253-176 424-336 586-338 341-653 700-960 1068a1457 1457 0 00-133 200 569 569 0 01-139 165c-100 77-186 44-200-86a1652 1652 0 01 75-663c200-614 254-1249 261-1889 5-424 0-848 0-1272a7161 7161 0 00-54-717c-22-274-205-440-425-422a223 223 0 00-135 42 2414 2414 0 00-645 758c-79 157-157 314-229 474a1381 1381 0 00-88 248 12611 12611 0 00-312 3135c12 591 10 1183 21 1775 0 183 26 366 45 549a838 838 0 01-226 636 1613 1613 0 00-166 260c-127 229-266 452-409 672a1624 1624 0 00-207 376 330 330 0 01-86 142 184 184 0 01-200 45 149 149 0 01-94-153c0-168-5-336 0-500a5963 5963 0 00-72-831 7481 7481 0 01-111-1046 3633 3633 0 00-255-1332c-38-100-54-200-88-300a645 645 0 00-600-440A451 451 0 00 23300 24100a1026 1026 0 00-235 662c15 775 14 1551 20 2327a385 385 0 00 5 100c117 481 111 982 238 1461 67 249 18 510 81 761a4075 4075 0 00 120 511c116 292 145 605 210 909 49 231-50 459-167 660a1505 1505 0 00-193 461 1200 1200 0 01-200 484 736 736 0 00-110 364c-11 109-19 233-146 277-76 26-161-86-218-252-95-279-151-585-300-828-177-279-255-595-422-878s-300-577-454-865c-182-344-385-682-689-942a677 677 0 00-626-150 412 412 0 00-326 310 969 969 0 00-32 561c62 237 111 477 165 716a100 100 0 00 9 22c200 276 245 619 410 909a2900 2900 0 01 135 281 4800 4800 0 00 537 955c115 151 217 315 316 476 140 228 329 410 483 623 91 125 243 175 353 282a520 520 0 01 143 608 892 892 0 01-43 112 2124 2124 0 00-231 776 2573 2573 0 01-139 556 2951 2951 0 00-169 867 1746 1746 0 01-68 425c-61 227-122 279-359 252a2394 2394 0 01-665-184c-174-76-335-182-530-213-136-22-214-155-341-211A3480 3480 0 01 19400 37000a2331 2331 0 01-489-370 168 168 0 00-108-42 2538 2538 0 01-660-200 1222 1222 0 00-317-100 600 600 0 01-348-191c-22-24-37-65-62-71-331-88-400-462-676-613a180 180 0 01-82-115 163 163 0 00-39-86c-242-190-300-500-470-732a244 244 0 01-49-80c-78-326-240-621-342-938a2562 2562 0 00-223-576c-128-209-169-462-308-672a720 720 0 00-423-326 2585 2585 0 01-715-370 600 600 0 01-207-344 965 965 0 00-188-384 511 511 0 01-100-242 1638 1638 0 00-63-300c-185-408-191-853-280-1280a130 130 0 00-12-46c-170-249-321-518-622-635a371 371 0 01-158-95 215 215 0 00-100-65 1722 1722 0 01-742-448c-244-223-536-415-586-785a51 51 0 00-6-22c-300-368-228-831-326-1250-24-100-27-206-50-306-42-182-100-351-285-449a370 370 0 01-200-380c13-267 23-530 242-727 6-6 13-12 14-19 56-330 300-577 393-890 49-163 58-311-91-435a200 200 0 01-37-280c135-200 107-406 54-622a2385 2385 0 01-8-974 2006 2006 0 00 67-352 349 349 0 01 22-93 7066 7066 0 01 513-900c152-194 348-353 447-588a247 247 0 01 95-105c200-120 342-312 527-452a1810 1810 0 01 248-184c162-85 181-181 82-328-116-173-88-278 106-360a1561 1561 0 01 360-127 383 383 0 00 331-333c67-315 291-527 465-770s448-313 715-346a400 400 0 00 371-281 1243 1243 0 01 311-449 440 440 0 01 343-142c430 20 820-128 1185-327a2357 2357 0 00 537-394c400-400 787-800 1188-1187 475-462 977-894 1484-1320 19-15 37-36 59-40 247-45 405-246 618-351 195-100 313-300 481-430a4832 4832 0 01 669-494 700 700 0 00 195-138 600 600 0 01 352-189c23 0 53 0 69-17 267-245 643-273 935-470a949 949 0 01 394-127 1700 1700 0 00 474-157 1591 1591 0 01 600-148 2991 2991 0 00 604-141 4627 4627 0 01 1536-190 10643 10643 0 01 1169 93 1089 1089 0 01 254 65c335 150 700 159 1051 205a1846 1846 0 01 442 100 2928 2928 0 00 1242 200 5343 5343 0 01 856 70c442 48 878 137 1323 174 506 43 1017 72 1507 244a2508 2508 0 00 562 100c306 33 580 164 866 256 152 49 328 50 457 130 291 180 652 213 908 467 90 90 237 115 343 208 279 244 478 546 688 847 144 208 291 421 421 634 167 275 364 539 473 849a710 710 0 00 84 200 1100 1100 0 01 219 720 349 349 0 00 71 248c114 129 149 307 248 432 189 241 258 549 467 773a182 182 0 01 44 57c69 242 232 432 353 645 161 283 326 562 507 832a221 221 0 01 38 61c65 322 308 548 448 830a455 455 0 01 0 478c-109 169-119 373-182 559a4347 4347 0 00-226 1554 954 954 0 00 243 652c324 360 593 768 947 1106 131 124 207 300 325 439 183 220 434 345 648 518a3589 3589 0 00 319 248c361 236 671 539 1029 779 124 84 229 200 349 289a284 284 0 01 86 386 1368 1368 0 01-406 524 8041 8041 0 01-975 637c-130 73-235 188-369 263a232 232 0 00-82 300 2107 2107 0 01 108 489A350 350 0 00 44100 27500c200 173 211 400 190 635a326 326 0 01-106 208c-125 124-250 248-372 375a472 472 0 00 0 684c93 100 192 193 285 293 190 200 192 336 9 542s-351 371-508 575a814 814 0 00-150 669c53 369 193 720 173 1107a2914 2914 0 01-321 1188 1020 1020 0 01-657 510c-487 145-983 160-1481 186-40 0-89-9-118 10-206 130-433 80-652 81a1387 1387 0 00-449 54 1146 1146 0 01-354 48 8436 8436 0 00-1337 72 3381 3381 0 01-910 0c-337-37-527 140-727 364-238 267-347 606-547 892a265 265 0 00-43 111c-52 400-247 759-307 1155-16 110-39 220-46 331a2021 2021 0 01-187 641 209 209 0 00-19 44c-79 460-314 866-450 1308a9482 9482 0 01-362 954c-87 200-171 409-256 613-117 278-225 562-360 829-108 212-177 443-294 642-165 281-205 626-454 859a43 43 0 00-14 19 9372 9372 0 01-354 928c-57 147-100 300-162 448-145 374-200 740 38 1120 192 300 382 588 676 794a478 478 0 01 142 227Z" fill="#fff" class="fg"/></svg>
