<svg xmlns="http://www.w3.org/2000/svg" viewBox="0 0 47970 47980"><path d="M23670 0h648a3434 3434 0 00 625 23 21669 21669 0 01 2232 188 23242 23242 0 01 4100 917 24032 24032 0 01 16264 18258 18308 18308 0 01 384 3234c7 114 14 228 22 343a2245 2245 0 00 25 400v1679c-6 47-14 94-17 141a22446 22446 0 01-347 3048c-1155 6117-4200 11091-9134 14872-3900 2990-8348 4572-13256 4841a23647 23647 0 01-5220-300 23132 23132 0 01-5600-1668c-4970-2212-8800-5686-11427-10452-2725-4952-3548-10244-2577-15800 766-4380 2659-8240 5594-11577A23757 23757 0 01 16000 1367a23457 23457 0 01 4540-1120 21423 21423 0 01 2500-224 3434 3434 0 00 630-23Zm2208 20462h9477a842 842 0 00 545-246 810 810 0 00 262-480 9700 9700 0 00-253-3093 10300 10300 0 00-9219-7857c-1620-119-3200 100-4690 744q-4840 2086-6126 7215c-229 917-276 1854-263 2800 8 578 346 923 926 923Zm-37 3430h11442a859 859 0 00 826-1169c-128-358-441-558-874-558H14364a853 853 0 00-830 1019c81 436 417 708 878 708Zm-1151 5517h10290a819 819 0 00 777-449c319-600-100-1278-789-1278H14324a808 808 0 00-634 337 854 854 0 00-75 929 811 811 0 00 781 460Zm4986 1128H21210a850 850 0 00-855 1045c83 420 422 682 886 682h16972a816 816 0 00 740-506 857 857 0 00-795-1220Zm-11653-3862h8300a859 859 0 00 827-1159 841 841 0 00-831-567H9635a824 824 0 00-700 460 860 860 0 00 785 1265ZM23983 37900h5708a851 851 0 10-37-1700H18237a814 814 0 00-619 318 822 822 0 00-100 900 800 800 0 00 768 480q2848 2 5697 2Zm5937-4654h-5144a844 844 0 00-823 1028c88 416 424 674 881 674h10253a849 849 0 00 700-1230 800 800 0 00-762-470q-2551-4-5105-1Zm-15161-2685h-4048a852 852 0 10 23 1700h8106a808 808 0 00 620-318 825 825 0 00 95-913 800 800 0 00-762-470c-1348-1-2693 1-4034 1Zm-1883-7554a876 876 0 10-881 885 885 885 0 00 881-885Zm-5649 1941a888 888 0 10 873 891 882 882 0 00-873-891Zm5649 3600a876 876 0 10-883 883 885 885 0 00 883-881Zm-5254 2846a876 876 0 10 886-881 885 885 0 00-886 881Zm15736 2700a876 876 0 10-882 883 885 885 0 00 882-886Zm-6476 2950a876 876 0 10-882 884 885 885 0 00 882-887Z" fill="#211438" class="bg"/><path d="M23045 23a94 94 0 00 6-15s0 0 0-8h623a3434 3434 0 01-629 23ZM24942 0a75 75 0 00 0 16s0 0 6 7a3434 3434 0 01-630-23Z" fill="#776f85" class="fg"/><path d="M25878 20462h-9343c-580 0-918-345-926-923-13-942 34-1879 263-2800q1281-5114 6128-7211c1494-644 3070-863 4690-744a10300 10300 0 01 9219 7857 9700 9700 0 01 253 3093 810 810 0 01-262 480 842 842 0 01-545 246H35200Zm-37 3430H14412c-461 0-800-272-878-708a853 853 0 01 830-1019h22871c433 0 746 200 874 558a859 859 0 01-826 1169Zm-1151 5517H14400a811 811 0 01-781-460 854 854 0 01 75-929 808 808 0 01 634-337h20640c687 0 1108 679 789 1278a819 819 0 01-777 449H24690Zm4986 1128h8478a857 857 0 01 795 1220 816 816 0 01-740 506H21241c-464 0-800-262-886-682a850 850 0 01 855-1045Zm-11653-3862h-8300a860 860 0 01-785-1265 824 824 0 01 700-460h16684a841 841 0 01 831 567 859 859 0 01-827 1159ZM23983 37900h-5700a800 800 0 01-768-480 822 822 0 01 100-900 814 814 0 01 619-318h11420a851 851 0 11 37 1700h-1679Zm5937-4653h5108a800 800 0 01 762 470 849 849 0 01-700 1230H24834c-457 0-793-258-881-674a844 844 0 01 823-1028h2278Zm-15161-2686h4029a800 800 0 01 762 470 825 825 0 01-95 913 808 808 0 01-620 318h-8106a852 852 0 11-23-1700h3489Zm-1883-7554a876 876 0 11-877-890 884 884 0 01 877 890Zm-5649 1941a888 888 0 11-876 889 884 884 0 01 876-889Zm5649 3602a876 876 0 11-875-892 883 883 0 01 875 892Zm-5254 2844a876 876 0 11 872 894 884 884 0 01-872-894Zm15736 2697a876 876 0 11-874-892 882 882 0 01 874 892Zm-6476 2950a876 876 0 11-876-891 884 884 0 01 876 891Z" fill="#fff" class="fg"/></svg>
